<svg xmlns="http://www.w3.org/2000/svg" viewBox="0 0 512 512" role="img" aria-labelledby="title desc">
  <title id="title">GymProgres</title>
  <desc id="desc">Monogram GP z motywem sztangi</desc>
  <defs>
    <linearGradient id="bg" x1="0" y1="0" x2="1" y2="1">
      <stop offset="0" stop-color="#111827"/>
      <stop offset="1" stop-color="#030712"/>
    </linearGradient>
    <linearGradient id="blue" x1="0" y1="0" x2="1" y2="1">
      <stop offset="0" stop-color="#36bffa"/>
      <stop offset="1" stop-color="#2563eb"/>
    </linearGradient>
    <filter id="glow" x="-30%" y="-30%" width="160%" height="160%">
      <feGaussianBlur stdDeviation="8" result="blur"/>
      <feMerge><feMergeNode in="blur"/><feMergeNode in="SourceGraphic"/></feMerge>
    </filter>
  </defs>
  <rect x="16" y="16" width="480" height="480" rx="112" fill="url(#bg)" stroke="#1f2937" stroke-width="10"/>
  <path d="M200 142c-60 0-106 47-106 114s46 114 110 114c36 0 67-14 89-37v-93h-94v54h36v18c-9 5-20 8-33 8-31 0-54-25-54-64 0-38 23-64 55-64 21 0 37 9 51 24l38-39c-22-23-51-35-92-35z" fill="#f8fafc"/>
  <path d="M282 142h77c60 0 94 29 94 78 0 51-37 82-98 82h-19v68h-54V142zm54 50v61h17c28 0 43-10 43-31 0-20-14-30-41-30h-19z" fill="url(#blue)"/>
  <g filter="url(#glow)" fill="#60a5fa">
    <rect x="65" y="244" width="382" height="24" rx="12"/>
    <rect x="47" y="216" width="28" height="80" rx="8"/>
    <rect x="21" y="226" width="24" height="60" rx="7"/>
    <rect x="437" y="216" width="28" height="80" rx="8"/>
    <rect x="467" y="226" width="24" height="60" rx="7"/>
  </g>
</svg>
